<?xml version="1.0" encoding="utf-8"?>
<!-- Generator: Adobe Illustrator 22.1.0, SVG Export Plug-In . SVG Version: 6.00 Build 0)  -->
<svg version="1.1" id="Layer_1" xmlns="http://www.w3.org/2000/svg" xmlns:xlink="http://www.w3.org/1999/xlink" x="0px" y="0px"
	 viewBox="0 0 185.1 40" style="enable-background:new 0 0 185.1 40;" xml:space="preserve">
<style type="text/css">
	.st0{fill:#101010;}
	.st1{fill:#395AF5;}
	.st2{fill:#FFFFFF;}
</style>
<g>
	<path class="st0" d="M62.3,17.4l0.1,10.5l-3.4,0l0-1.3c-1,1.1-2.2,1.6-3.5,1.6c-1.6,0-2.8-0.4-3.8-1.4c-1-0.9-1.5-2.3-1.5-4.1
		c0-1.2,0.2-2.2,0.7-3c0.5-0.9,1.1-1.6,1.9-2c0.8-0.5,1.6-0.7,2.5-0.7c0.9,0,1.7,0.1,2.2,0.4c0.5,0.3,1,0.7,1.4,1.2l0.2-1.1
		L62.3,17.4z M59,23.9l0-2.6c-0.2-0.5-0.5-0.9-1-1.2c-0.5-0.3-1-0.4-1.7-0.4c-0.7,0-1.4,0.3-1.9,0.8c-0.5,0.5-0.8,1.2-0.8,2.1
		c0,0.5,0.1,1,0.4,1.5c0.3,0.5,0.6,0.8,1,1.1c0.4,0.3,0.9,0.4,1.4,0.4C57.6,25.5,58.5,24.9,59,23.9z"/>
	<path class="st0" d="M74.6,17.7c0.7,0.6,1,1.3,1,2.2l0.1,7.8l-3.4,0l0-6.6c-0.1-1-0.6-1.5-1.5-1.5c-0.8,0-1.4,0.4-1.8,1.1
		c-0.5,0.7-0.7,1.7-0.7,2.8l0,4.3l-3.4,0l-0.1-10.5l3,0l0.3,1.7c0.4-0.7,0.9-1.2,1.6-1.6c0.7-0.4,1.5-0.6,2.4-0.6
		C73.1,16.8,73.9,17.1,74.6,17.7z"/>
	<path class="st0" d="M88.5,17.2L82.6,28l-0.1,0l-6.4-10.7l4,0l2.5,5l2.1-5L88.5,17.2z"/>
	<path class="st0" d="M89.1,19.4c0.5-0.9,1.2-1.5,2.1-2c0.9-0.5,2-0.7,3.1-0.8c1.2,0,2.2,0.2,3.1,0.7c0.9,0.5,1.6,1.1,2.1,2
		c0.5,0.8,0.7,1.8,0.7,2.9c0,1.1-0.2,2-0.7,2.9c-0.5,0.9-1.2,1.5-2,2s-1.9,0.7-3.1,0.8c-1.2,0-2.2-0.2-3.1-0.7
		c-0.9-0.4-1.6-1.1-2.1-1.9c-0.5-0.8-0.8-1.9-0.8-3C88.3,21.3,88.6,20.3,89.1,19.4z M92.5,24.4c0.5,0.5,1.1,0.8,1.8,0.8
		c0.8,0,1.4-0.3,1.9-0.8c0.5-0.5,0.7-1.2,0.7-2.1c0-0.8-0.2-1.5-0.7-2.1s-1.1-0.8-1.9-0.8c-0.7,0-1.3,0.3-1.8,0.8
		c-0.5,0.6-0.7,1.2-0.7,2.1C91.7,23.2,92,23.8,92.5,24.4z"/>
	<path class="st0" d="M113.3,8.6l0.1,18.9l-3.4,0l0-1.1c-1.2,0.9-2.5,1.4-3.9,1.4c-1,0-1.9-0.2-2.6-0.7c-0.8-0.5-1.4-1.1-1.8-2
		c-0.4-0.9-0.7-1.9-0.7-3c0-1.2,0.2-2.1,0.7-3s1.1-1.5,1.9-1.9c0.8-0.4,1.8-0.7,2.9-0.7c0.7,0,1.3,0.1,1.9,0.3
		c0.6,0.2,1.1,0.5,1.5,0.9L110,8.6L113.3,8.6z M109,24.6c0.4-0.3,0.8-0.7,1.1-1.2l0-2.6c-0.2-0.5-0.5-0.9-1-1.2
		c-0.5-0.3-1.1-0.4-1.8-0.4c-0.8,0-1.4,0.3-2,0.8c-0.5,0.5-0.8,1.2-0.8,2.1c0,0.5,0.1,1,0.4,1.5c0.3,0.5,0.6,0.8,1,1.1
		c0.4,0.3,0.9,0.4,1.4,0.4C108,25,108.5,24.9,109,24.6z"/>
	<path class="st0" d="M123.8,27.2c-0.8-0.3-1.4-0.7-1.9-1.3l1.4-1.9c0.9,0.9,1.8,1.3,2.6,1.3c0.4,0,0.8-0.1,1-0.2
		c0.3-0.1,0.4-0.3,0.4-0.6c0-0.3-0.2-0.6-0.5-0.7c-0.3-0.2-0.6-0.3-1-0.4c-0.4-0.1-0.6-0.2-0.8-0.2c-0.9-0.3-1.6-0.7-2-1.3
		c-0.5-0.6-0.7-1.2-0.7-2c0-0.6,0.1-1.1,0.4-1.6c0.3-0.5,0.7-1,1.4-1.3c0.6-0.3,1.4-0.5,2.3-0.5c0.9,0,1.6,0.1,2.2,0.2
		c0.6,0.2,1.2,0.5,1.8,0.9l-1.3,2c-0.3-0.3-0.7-0.5-1.1-0.6s-0.8-0.2-1.1-0.2c-0.4,0-0.7,0.1-0.9,0.2s-0.4,0.4-0.4,0.6
		c0,0.3,0.1,0.6,0.4,0.8s0.8,0.3,1.4,0.5c0.1,0,0.2,0.1,0.3,0.1c0.1,0,0.2,0.1,0.3,0.1c1.7,0.5,2.5,1.5,2.5,3c0,0.7-0.2,1.3-0.5,1.9
		s-0.8,1-1.5,1.4c-0.7,0.3-1.5,0.5-2.5,0.5C125.3,27.7,124.5,27.5,123.8,27.2z"/>
	<path class="st0" d="M136.8,12.3l0,4.6l2.5,0l0,2.6l-2.5,0l0.1,7.9l-3.4,0l-0.1-7.9l-1.6,0l0-2.6l1.6,0l0-4.6L136.8,12.3z"/>
	<path class="st0" d="M151.5,16.8l0.1,10.5l-3,0l-0.3-1.7c-0.4,0.7-0.9,1.2-1.5,1.6c-0.7,0.4-1.4,0.6-2.3,0.6c-1,0-1.8-0.3-2.4-0.9
		c-0.6-0.6-1-1.3-1-2.2l-0.1-7.8l3.4,0l0,6.6c0.1,1,0.5,1.5,1.4,1.5c0.7,0,1.3-0.4,1.8-1.1c0.4-0.7,0.6-1.7,0.6-2.8l0-4.3
		L151.5,16.8z"/>
	<path class="st0" d="M165.5,8.2l0.1,18.9l-3.4,0l0-1.1c-1.2,0.9-2.5,1.4-3.9,1.4c-1,0-1.9-0.2-2.6-0.7c-0.8-0.5-1.4-1.1-1.8-2
		c-0.4-0.9-0.7-1.9-0.7-3c0-1.2,0.2-2.1,0.7-3c0.5-0.8,1.1-1.5,1.9-1.9c0.8-0.4,1.8-0.7,2.9-0.7c0.7,0,1.3,0.1,1.9,0.3
		c0.6,0.2,1.1,0.5,1.5,0.9l-0.1-9.2L165.5,8.2z M161.2,24.3c0.4-0.3,0.8-0.7,1.1-1.2l0-2.6c-0.2-0.5-0.5-0.9-1-1.2
		c-0.5-0.3-1.1-0.4-1.8-0.4c-0.8,0-1.4,0.3-2,0.8c-0.5,0.5-0.8,1.2-0.8,2.1c0,0.5,0.1,1,0.4,1.5c0.3,0.5,0.6,0.8,1,1.1
		c0.4,0.3,0.9,0.4,1.4,0.4C160.1,24.7,160.7,24.5,161.2,24.3z"/>
	<path class="st0" d="M168.5,11.7c0.4-0.3,0.8-0.5,1.3-0.5c0.5,0,0.9,0.2,1.3,0.5c0.4,0.3,0.6,0.7,0.6,1.2c0,0.5-0.2,0.9-0.5,1.2
		c-0.4,0.3-0.8,0.5-1.2,0.5c-0.5,0-0.9-0.2-1.3-0.5c-0.4-0.3-0.6-0.7-0.6-1.2C168,12.5,168.1,12.1,168.5,11.7z M171.4,16.6l0.1,10.5
		l-3.4,0l-0.1-10.5L171.4,16.6z"/>
	<path class="st0" d="M173.9,18.8c0.5-0.9,1.2-1.5,2.1-2c0.9-0.5,2-0.7,3.1-0.8s2.2,0.2,3.1,0.7c0.9,0.5,1.6,1.1,2.1,2
		c0.5,0.8,0.7,1.8,0.7,2.9c0,1.1-0.2,2-0.7,2.9s-1.2,1.5-2,2s-1.9,0.7-3.1,0.8c-1.2,0-2.2-0.2-3.1-0.7c-0.9-0.4-1.6-1.1-2.1-1.9
		c-0.5-0.8-0.8-1.9-0.8-3C173.1,20.7,173.4,19.7,173.9,18.8z M177.3,23.8c0.5,0.5,1.1,0.8,1.8,0.8c0.8,0,1.4-0.3,1.9-0.8
		c0.5-0.5,0.7-1.2,0.7-2.1c0-0.8-0.2-1.5-0.7-2.1c-0.5-0.5-1.1-0.8-1.9-0.8c-0.7,0-1.3,0.3-1.8,0.8c-0.5,0.6-0.7,1.2-0.7,2.1
		C176.5,22.6,176.8,23.3,177.3,23.8z"/>
</g>
<path class="st1" d="M28.4,40H11.6C5.2,40,0,34.8,0,28.4V11.6C0,5.2,5.2,0,11.6,0h16.9C34.8,0,40,5.2,40,11.6v16.9
	C40,34.8,34.8,40,28.4,40z"/>
<g>
	<path class="st2" d="M29.4,10v17.5h-5.6v-2.2c-1.7,1.8-3.6,2.6-5.8,2.6c-2.6,0-4.7-0.8-6.3-2.3c-1.6-1.5-2.4-3.8-2.4-6.9
		c0-1.9,0.4-3.6,1.2-5.1c0.8-1.5,1.8-2.6,3.1-3.4c1.3-0.8,2.7-1.2,4.2-1.2c1.5,0,2.8,0.2,3.7,0.7c0.9,0.5,1.7,1.1,2.4,2l0.4-1.8
		H29.4z M23.8,20.7v-4.3c-0.3-0.9-0.9-1.5-1.7-2c-0.8-0.5-1.7-0.8-2.8-0.8c-1.2,0-2.3,0.5-3.1,1.4c-0.9,0.9-1.3,2.1-1.3,3.4
		c0,0.9,0.2,1.7,0.6,2.5c0.4,0.8,1,1.4,1.7,1.8c0.7,0.4,1.5,0.6,2.3,0.6C21.5,23.4,22.9,22.5,23.8,20.7z"/>
</g>
</svg>
