<svg width="512.00132" height="512" xmlns="http://www.w3.org/2000/svg">

 <g>
  <title>background</title>
  <rect fill="none" id="canvas_background" height="402" width="582" y="-1" x="-1"/>
 </g>
 <g>
  <title>Layer 1</title>
  <path id="svg_1" d="m479.730469,0l-48.140625,0c-4.1875,0 -7.585938,3.398438 -7.585938,7.585938c0,4.191406 3.398438,7.589843 7.585938,7.589843l48.140625,0c9.425781,0 17.09375,7.667969 17.09375,17.09375l0,115.804688c0,9.425781 -7.667969,17.09375 -17.09375,17.09375l-177.417969,0c-2.011719,0 -3.941406,0.800781 -5.367188,2.222656l-43.699218,43.699219l0,-38.332032c0,-4.191406 -3.394532,-7.589843 -7.585938,-7.589843l-14.449218,0c-9.425782,0 -17.09375,-7.667969 -17.09375,-17.09375l0,-115.804688c0,-9.425781 7.667968,-17.09375 17.09375,-17.09375l175.085937,0c4.191406,0 7.589844,-3.398437 7.589844,-7.589843c0,-4.1875 -3.398438,-7.585938 -7.589844,-7.585938l-175.085937,0c-17.792969,0 -32.269532,14.476562 -32.269532,32.269531l0,115.804688c0,17.792969 14.476563,32.269531 32.269532,32.269531l6.863281,0l0,49.0625c0,3.070312 1.847656,5.835938 4.683593,7.011719c0.9375,0.386719 1.921876,0.578125 2.902344,0.578125c1.972656,0 3.914063,-0.773438 5.367188,-2.222656l54.425781,-54.429688l174.277344,0c17.792969,0 32.269531,-14.476562 32.269531,-32.269531l0,-115.804688c0,-17.792969 -14.476562,-32.269531 -32.269531,-32.269531zm0,0"/>
  <path fill="#5270ff" id="svg_2" d="m274.285156,97.324219c8.996094,-6.15625 20.195313,-13.824219 20.195313,-26.933594c0,-6.21875 -2.519531,-11.519531 -7.28125,-15.328125c-4.210938,-3.371094 -10.015625,-5.304688 -15.925781,-5.304688c-10.914063,0 -22.511719,6.710938 -22.511719,19.144532c0,5.484375 2.308593,8.152344 7.058593,8.152344c5.359376,0 8.25,-2.976563 8.25,-5.773438c0,-4.640625 2.660157,-7.304688 7.300782,-7.304688c5.464844,0 7.402344,3.722657 7.402344,6.90625c0,5.894532 -6.949219,10.996094 -14.308594,16.398438c-8.304688,6.09375 -16.890625,12.398438 -16.890625,20.648438l0,9.609374c0,2.980469 4.0625,4.882813 6.859375,4.882813l35.265625,0c2.546875,0 4.78125,-3.253906 4.78125,-6.964844c0,-3.601562 -2.234375,-6.761719 -4.78125,-6.761719l-25.828125,0l0,-0.765624c0,-3.476563 4.828125,-6.777344 10.414062,-10.605469zm0,0"/>
  <path fill="#5270ff" id="svg_3" d="m336.453125,122.417969c5.394531,0 7.851563,-2.527344 7.851563,-4.878907l0,-10.375l4.132812,0c2.464844,0 4.882812,-3.59375 4.882812,-7.257812c0,-4.988281 -2.53125,-7.257812 -4.882812,-7.257812l-4.132812,0l0,-6.808594c0,-2.203125 -2.054688,-4.78125 -7.851563,-4.78125s-7.851563,2.574218 -7.851563,4.78125l0,6.808594l-8.1875,0l17.441407,-34.988282c0.265625,-0.613281 0.507812,-1.269531 0.507812,-1.933594c0,-1.617187 -1.035156,-3.167968 -2.917969,-4.367187c-1.535156,-0.972656 -3.46875,-1.601563 -4.933593,-1.601563c-2.882813,0 -5.207031,1.429688 -6.550781,4.03125l-22.882813,44.867188c-0.703125,1.289062 -0.808594,2.453125 -0.808594,3.03125c0,3.277344 2.125,5.476562 5.28125,5.476562l23.050781,0l0,10.371094c0,2.355469 2.457032,4.882813 7.851563,4.882813zm0,0"/>
  <path id="svg_4" d="m395.671875,48.246094l-34.765625,71.414062c-0.324219,0.648438 -0.511719,1.351563 -0.511719,1.9375c0,2.597656 2.28125,5.378906 5.675781,5.378906c1.992188,0 3.871094,-1.050781 4.570313,-2.546874l34.867187,-71.417969c0.339844,-0.679688 0.410157,-1.429688 0.410157,-1.9375c0,-3.21875 -3.085938,-5.378907 -5.972657,-5.378907c-1.953124,0 -3.511718,0.929688 -4.273437,2.550782zm0,0"/>
  <path fill="#5270ff" id="svg_5" d="m422.234375,74.875c4.3125,0 7.953125,-2.234375 7.953125,-4.882812l0,-6.511719l17.476562,0l0,6.773437l-24.351562,42.171875c-0.488281,0.882813 -0.707031,1.695313 -0.707031,2.636719c0,4.683594 5.234375,7.949219 9.933593,7.949219c2.234376,0 3.699219,-0.699219 4.46875,-2.148438l23.179688,-44.375c0.746094,-1.398437 3.183594,-6.222656 3.183594,-9.46875l0,-12.382812c0,-2.128907 -3.328125,-4.878907 -6.863282,-4.878907l-35.164062,0c-3.460938,0 -6.863281,2.417969 -6.863281,4.878907l0,15.355469c0,2.691406 3.480469,4.882812 7.753906,4.882812zm0,0"/>
  <path id="svg_6" d="m313.769531,263.433594c-3.945312,-3.945313 -9.195312,-6.117188 -14.777343,-6.117188c-5.582032,0 -10.832032,2.171875 -14.777344,6.117188l-46.378906,46.378906c-18.46875,-9.652344 -34.535157,-18.855469 -52.488282,-33.996094c-3.203125,-2.699218 -7.988281,-2.292968 -10.691406,0.910156c-2.699219,3.203126 -2.292969,7.988282 0.910156,10.691407c20.734375,17.480469 38.78125,27.347656 60.21875,38.429687c2.933594,1.515625 6.511719,0.960938 8.847656,-1.375l24.953126,-24.949218l82.261718,82.261718c-26.570312,22.808594 -64.199218,30.75 -106.921875,22.351563c-48.046875,-9.449219 -98.890625,-39.03125 -143.164062,-83.304688c-44.273438,-44.273437 -73.859375,-95.121093 -83.308594,-143.167969c-8.398437,-42.726562 -0.457031,-80.355468 22.347656,-106.921874l82.273438,82.269531l-24.960938,24.957031c-2.335937,2.335938 -2.890625,5.917969 -1.371093,8.851562c15.109374,29.214844 27.300781,50.652344 57.839843,81.195313c2.964844,2.960937 7.769531,2.960937 10.730469,0c2.964844,-2.964844 2.964844,-7.769531 0,-10.730469c-27.378906,-27.378906 -38.851562,-46.339844 -52.535156,-72.515625l46.382812,-46.386719c3.949219,-3.945312 6.121094,-9.195312 6.121094,-14.777343s-2.171875,-10.832031 -6.121094,-14.777344l-74.382812,-74.382813c-3.945313,-3.949218 -9.195313,-6.125 -14.777344,-6.125s-10.832031,2.175782 -14.777344,6.121094l-19.996094,19.996094c-30.429687,30.429688 -41.675781,75.234375 -31.664062,126.152344c10.023438,50.972656 41.085938,104.589844 87.46875,150.972656c46.378906,46.378906 99.996094,77.441406 150.96875,87.460938c12.132812,2.386718 23.914062,3.566406 35.242188,3.5625c36.207031,0 67.730468,-12.046876 90.910156,-35.226563l19.992187,-19.992187c3.949219,-3.949219 6.121094,-9.195313 6.121094,-14.777344c0,-5.582032 -2.171875,-10.832032 -6.121094,-14.777344l-74.375,-74.378906zm-247.816406,-218.261719c1.078125,-1.078125 2.515625,-1.675781 4.046875,-1.675781s2.96875,0.59375 4.046875,1.675781l74.386719,74.386719c1.078125,1.078125 1.675781,2.515625 1.675781,4.046875s-0.597656,2.96875 -1.675781,4.046875l-14.628906,14.628906l-82.480469,-82.480469l14.628906,-14.628906zm311.464844,311.464844l-14.632813,14.628906l-82.46875,-82.472656l14.628906,-14.628907c1.078126,-1.082031 2.519532,-1.675781 4.046876,-1.675781c1.527343,0 2.964843,0.59375 4.046874,1.675781l74.378907,74.375c2.230469,2.234376 2.230469,5.867188 0,8.097657zm0,0"/>
 </g>
</svg>